<?xml version="1.0" encoding="utf-8"?>
<!-- Generator: Adobe Illustrator 24.1.1, SVG Export Plug-In . SVG Version: 6.00 Build 0)  -->
<svg version="1.1" id="Layer_1" xmlns="http://www.w3.org/2000/svg" xmlns:xlink="http://www.w3.org/1999/xlink" x="0px" y="0px"
	 viewBox="0 0 512 512" style="enable-background:new 0 0 512 512;" xml:space="preserve">
<style type="text/css">
	.st0{fill:#BDBCBB;}
</style>
<path class="st0" d="M445.5,408.9L382,345.4c-2.9-2.9-6.8-4.5-10.8-4.5h-10.4c17.6-22.5,28-50.8,28-81.5
	c0-73.2-59.3-132.5-132.5-132.5s-132.5,59.3-132.5,132.5s59.3,132.5,132.5,132.5c30.8,0,59-10.4,81.5-28v10.4c0,4.1,1.6,8,4.5,10.8
	l63.5,63.5c6,6,15.7,6,21.6,0l18-18C451.5,424.6,451.5,414.9,445.5,408.9z M256.4,340.9c-45,0-81.5-36.4-81.5-81.5
	c0-45,36.4-81.5,81.5-81.5c45,0,81.5,36.4,81.5,81.5C337.9,304.4,301.5,340.9,256.4,340.9z"/>
</svg>
